<svg xmlns="http://www.w3.org/2000/svg" viewBox="0 0 64 64">
  <path d="M32 3 C19.5 3 7 13.5 7 27 C7 37.5 13.5 46.5 22 52.5 Q27 57 32 62 Q37 57 42 52.5 C50.5 46.5 57 37.5 57 27 C57 13.5 44.5 3 32 3 Z" fill="#6DB33F"/>
  <path d="M32 12 L47 25 L44 25 L44 44 L20 44 L20 25 L17 25 Z" fill="white"/>
  <rect x="22" y="26" width="20" height="18" fill="#1D3461" rx="1"/>
  <rect x="25" y="29" width="5" height="5" fill="white" rx="0.5"/>
  <rect x="34" y="29" width="5" height="5" fill="white" rx="0.5"/>
  <rect x="25" y="37" width="5" height="5" fill="white" rx="0.5"/>
  <rect x="34" y="37" width="5" height="5" fill="white" rx="0.5"/>
</svg>